<?xml version="1.0" encoding="UTF-8"?>
<svg version="1.1" xmlns="http://www.w3.org/2000/svg" width="677" height="369">
<path d="M0 0 C5.65127176 0.11773483 8.71256465 1.91774023 13.25 5.14453125 C16.54416762 7.36715855 19.95871631 9.27211964 23.4375 11.1875 C31.79128385 15.81434874 39.91789121 20.78131768 48.04394531 25.79443359 C55.45772598 30.40345213 55.45772598 30.40345213 63.125 34.5625 C64.07375 35.036875 65.0225 35.51125 66 36 C66.65868576 36.29242584 67.31737152 36.58485168 67.99601746 36.88613892 C73.54363414 39.72295889 73.54363414 39.72295889 74.73965454 43.06976318 C75.02172055 45.7076486 75.04533792 48.24583666 74.98828125 50.8984375 C74.99853836 51.89781342 75.00879547 52.89718933 75.0193634 53.92684937 C75.03716242 56.11697283 75.03690467 58.30729807 75.02105713 60.49743652 C74.99934184 64.10947592 75.03499358 67.7173565 75.08349609 71.32910156 C75.16222191 77.77570456 75.18570447 84.22092008 75.18530273 90.66796875 C75.18716025 94.01314731 75.19911389 97.35797485 75.21607494 100.70308876 C75.22983386 103.94007235 75.22928018 107.17705362 75.23046875 110.4140625 C75.23765427 111.6066568 75.24483978 112.7992511 75.25224304 114.02798462 C75.24916641 115.13459442 75.24608978 116.24120422 75.24291992 117.38134766 C75.24434494 118.34900055 75.24576996 119.31665344 75.24723816 120.31362915 C74.89872426 124.10041348 74.09592369 127.01969024 71.22265625 129.58984375 C70.15337891 130.25693359 70.15337891 130.25693359 69.0625 130.9375 C68.25683594 131.4428125 67.45117188 131.948125 66.62109375 132.46875 C63.06263498 134.54761116 59.44366212 136.50035033 55.80859375 138.44140625 C53.0241674 139.9865886 50.36000467 141.64434719 47.6875 143.375 C41.82906329 147.16378955 35.78669793 150.59451087 29.71679688 154.02685547 C22.11508725 158.33578814 14.67978256 162.76877667 7.47265625 167.71484375 C4.69254566 169.15979854 3.08860026 169.39063241 0 169 C-1.6954573 167.70347383 -3.35447871 166.35934368 -5 165 C-7.67135668 163.45866616 -10.38825539 162.01791257 -13.109375 160.56640625 C-16.61859466 158.66478857 -20.02263483 156.61800499 -23.43359375 154.546875 C-26.10481646 152.93682295 -28.79937926 151.37269355 -31.5 149.8125 C-35.19135156 147.67036852 -38.84998365 145.48748904 -42.484375 143.25 C-43.27134766 142.7655542 -44.05832031 142.2811084 -44.86914062 141.78198242 C-46.41660831 140.82687496 -47.96228773 139.86886192 -49.50585938 138.9074707 C-53.66946506 136.3366755 -57.8566196 133.98603102 -62.27075195 131.87133789 C-64.91599603 130.5384456 -66.935647 129.12690915 -69 127 C-70.06545346 122.44957675 -70.14296204 117.94780283 -70.12939453 113.2980957 C-70.13114685 112.55101349 -70.13289917 111.80393127 -70.13470459 111.03421021 C-70.13908204 108.58137646 -70.13620054 106.12861564 -70.1328125 103.67578125 C-70.13348651 101.96518439 -70.13445734 100.25458762 -70.13571167 98.54399109 C-70.13718289 94.96738773 -70.13505179 91.39080942 -70.13037109 87.81420898 C-70.12466118 83.22751287 -70.12796442 78.6408751 -70.13394356 74.0541811 C-70.13755365 70.52578795 -70.13640874 66.99740869 -70.13381577 63.46901512 C-70.13314841 61.7773049 -70.13396824 60.08559341 -70.13629532 58.39388466 C-70.13883058 56.03379588 -70.13496945 53.67380237 -70.12939453 51.3137207 C-70.13141876 50.61392593 -70.13344299 49.91413116 -70.13552856 49.19313049 C-70.12231144 46.17764454 -69.96223463 43.8867039 -69 41 C-67.48461914 39.83666992 -67.48461914 39.83666992 -65.53515625 38.73046875 C-64.46648315 38.11437744 -64.46648315 38.11437744 -63.3762207 37.48583984 C-62.61269287 37.0573877 -61.84916504 36.62893555 -61.0625 36.1875 C-59.49460647 35.28808318 -57.926897 34.38834543 -56.359375 33.48828125 C-55.60205078 33.05725098 -54.84472656 32.6262207 -54.06445312 32.18212891 C-51.62347066 30.7843951 -49.21477533 29.33813078 -46.8125 27.875 C-39.04452985 23.19565962 -31.15429205 18.70659498 -23.1875 14.375 C-19.39892455 12.28813219 -15.8537749 9.92237832 -12.28125 7.48828125 C-9.1961739 5.47558605 -5.994473 3.72099333 -2.75 1.98046875 C-1.03077484 1.12119615 -1.03077484 1.12119615 0 0 Z M-8.36328125 21.95703125 C-11.08180426 24.06338316 -13.70878162 25.46903036 -16.8125 26.9375 C-21.14707815 29.04362632 -25.22481963 31.28966017 -29.26171875 33.9140625 C-31 35 -31 35 -34.1875 36.5625 C-37.03024392 37.88514701 -37.03024392 37.88514701 -39.25 39.875 C-42.49988269 42.38627299 -45.89144747 44.01215944 -49.59765625 45.75390625 C-52.09418317 47.04885274 -53.97502958 48.03592246 -56 50 C-56.65747006 53.03035602 -56.65747006 53.03035602 -56.62866211 56.56347656 C-56.64691544 57.22566696 -56.66516876 57.88785736 -56.68397522 58.57011414 C-56.7372835 60.7604891 -56.75968565 62.94968897 -56.77734375 65.140625 C-56.79782108 66.66656707 -56.81845836 68.19250699 -56.83924866 69.71844482 C-56.87675403 72.91962679 -56.8961395 76.12039855 -56.90600586 79.32177734 C-56.92233763 83.41354579 -57.00797202 87.50068401 -57.11069393 91.59106827 C-57.1778993 94.74490021 -57.19534392 97.89762944 -57.19940376 101.05211639 C-57.20962845 102.55933707 -57.23801616 104.06655294 -57.28529167 105.57306671 C-57.42009387 110.21844206 -57.36119909 114.50673122 -56 119 C-52.73601218 122.35284611 -49.23440905 124.10946121 -45 126 C-44.1185582 126.55085266 -43.23711639 127.10170532 -42.32896423 127.66925049 C-40.01292874 129.24805722 -40.01292874 129.24805722 -37 129 C-37 129.66 -37 130.32 -37 131 C-36.27554688 131.38671875 -35.55109375 131.7734375 -34.8046875 132.171875 C-29.69971219 134.92175503 -24.82510617 137.78326255 -20 141 C-17.31263132 142.49773732 -14.60427928 143.95334233 -11.89453125 145.41015625 C-8.1987504 147.44009256 -4.59593185 149.60631994 -0.99609375 151.80078125 C0.97232676 153.01835928 0.97232676 153.01835928 3 154 C3 153.34 3 152.68 3 152 C3.78375 151.79375 4.5675 151.5875 5.375 151.375 C9.40176714 149.84760557 12.77411762 147.8275775 16.4296875 145.57421875 C20.21719997 143.25451126 24.10238676 141.12771346 28 139 C28.99257813 138.45730469 29.98515625 137.91460937 31.0078125 137.35546875 C33.67068441 135.90144534 36.33476603 134.44968801 39 133 C39 132.34 39 131.68 39 131 C39.99 131 40.98 131 42 131 C42 130.34 42 129.68 42 129 C42.5465625 128.89429688 43.093125 128.78859375 43.65625 128.6796875 C46.52256133 127.84845721 48.8881948 126.56723309 51.5 125.125 C52.4384375 124.61195313 53.376875 124.09890625 54.34375 123.5703125 C55.2203125 123.05210937 56.096875 122.53390625 57 122 C57.7011644 121.60765671 58.4023288 121.21531342 59.1247406 120.81108093 C61.85753806 118.17181013 61.56525668 116.20122556 61.66040039 112.45239258 C61.69259926 111.46151642 61.69259926 111.46151642 61.72544861 110.45062256 C61.78896255 108.26512519 61.82109526 106.08077357 61.84765625 103.89453125 C61.86021391 103.14602087 61.87277157 102.39751049 61.88570976 101.62631798 C61.95152778 97.6618965 61.9935189 93.69805071 62.01586914 89.7331543 C62.04334057 85.64974496 62.14967623 81.57247588 62.2749567 77.49106312 C62.35730383 74.34147351 62.38098875 71.19333518 62.38915825 68.04276085 C62.40304832 66.53903143 62.43857922 65.03533132 62.49675179 63.53266335 C62.66769313 58.79100974 62.58232051 54.53961302 61 50 C57.03178449 46.28829863 52.93570294 44.28212366 48 42 C46.43567262 40.99268406 44.88754366 39.95852076 43.375 38.875 C39.30823624 36.12417259 35.06942373 33.80564067 30.7421875 31.4921875 C28.18011822 30.09801305 25.6811024 28.63751293 23.1875 27.125 C18.99780824 24.59232459 14.79322105 22.08843027 10.5625 19.625 C9.95881592 19.26680176 9.35513184 18.90860352 8.7331543 18.53955078 C1.69561285 14.46785166 -2.54242997 17.13678912 -8.36328125 21.95703125 Z " fill="#4B4E4F" transform="translate(336,100)"/>
<path d="M0 0 C1.15881215 7.20519492 1.21998398 14.4008026 1.24023438 21.68334961 C1.25005772 23.82508529 1.28121201 25.96590566 1.3125 28.10742188 C1.31902086 29.4739527 1.32427492 30.84049029 1.328125 32.20703125 C1.34214355 34.05518433 1.34214355 34.05518433 1.35644531 35.94067383 C1 39 1 39 -0.34033203 40.90405273 C-2.89652278 42.592011 -5.10784605 42.3227025 -8.125 42.25 C-9.20007813 42.23453125 -10.27515625 42.2190625 -11.3828125 42.203125 C-14 42 -14 42 -15 41 C-15.07319621 38.30345146 -15.09242537 35.63308542 -15.0625 32.9375 C-15.05798828 32.17888672 -15.05347656 31.42027344 -15.04882812 30.63867188 C-15.0370068 28.75908129 -15.01907078 26.87953101 -15 25 C-15.58007812 25.39832031 -16.16015625 25.79664063 -16.7578125 26.20703125 C-21.96615395 29.73942124 -26.98881472 32.99627157 -33 35 C-32.96970703 35.65258789 -32.93941406 36.30517578 -32.90820312 36.97753906 C-32.25471682 51.32910365 -31.85553404 65.63366325 -32 80 C-30.29241735 80.93886662 -28.58389556 81.87602523 -26.875 82.8125 C-25.92367188 83.33457031 -24.97234375 83.85664063 -23.9921875 84.39453125 C-21.02470615 85.98674383 -18.01212038 87.49393981 -15 89 C-15 81.08 -15 73.16 -15 65 C-18.3 65 -21.6 65 -25 65 C-26 64 -26 64 -26.1328125 61.09375 C-26.13023437 59.9078125 -26.12765625 58.721875 -26.125 57.5 C-26.12757813 56.3140625 -26.13015625 55.128125 -26.1328125 53.90625 C-26 51 -26 51 -25 50 C-23.14630389 49.91262355 -21.28932459 49.89301847 -19.43359375 49.90234375 C-18.30888672 49.90556641 -17.18417969 49.90878906 -16.02539062 49.91210938 C-14.84138672 49.92048828 -13.65738281 49.92886719 -12.4375 49.9375 C-11.24962891 49.94201172 -10.06175781 49.94652344 -8.83789062 49.95117188 C-5.89187774 49.96300325 -2.94596319 49.97948713 0 50 C0.87655623 57.26704478 1.14724041 64.4225788 1.1328125 71.73828125 C1.13376923 72.82207565 1.13472595 73.90587006 1.13571167 75.02250671 C1.13638783 77.29568541 1.13457319 79.5688661 1.13037109 81.84204102 C1.1249886 85.31986803 1.13034866 88.79756744 1.13671875 92.27539062 C1.13605838 94.49218778 1.13477807 96.70898486 1.1328125 98.92578125 C1.13483673 99.96229324 1.13686096 100.99880524 1.13894653 102.06672668 C1.13421829 103.51930122 1.13421829 103.51930122 1.12939453 105.0012207 C1.12859894 105.84820023 1.12780334 106.69517975 1.12698364 107.56782532 C0.99337648 110.12686321 0.56154655 112.50275694 0 115 C-5.34413017 114.72594204 -8.44790814 112.54529817 -12.67578125 109.56640625 C-15.96941384 107.34666395 -19.41260159 105.69586107 -23 104 C-23 103.34 -23 102.68 -23 102 C-23.55171875 101.88785156 -24.1034375 101.77570313 -24.671875 101.66015625 C-27.40065211 100.88639227 -29.72772943 99.73182306 -32.25 98.4375 C-33.14203125 97.98246094 -34.0340625 97.52742188 -34.953125 97.05859375 C-35.96632813 96.53458984 -35.96632813 96.53458984 -37 96 C-37 95.34 -37 94.68 -37 94 C-37.886875 93.731875 -38.77375 93.46375 -39.6875 93.1875 C-42.87223 92.04580434 -45.29206023 91.01867168 -48 89 C-48.68505859 86.7487793 -48.68505859 86.7487793 -48.7734375 83.88671875 C-48.81694336 82.72446777 -48.86044922 81.5622168 -48.90527344 80.36474609 C-48.91860718 79.68716248 -48.93194092 79.00957886 -48.94567871 78.3114624 C-49.00760799 75.67626707 -49.12540826 73.04588005 -49.24316406 70.41259766 C-49.46566287 65.00956893 -49.55065511 59.61358465 -49.58203125 54.20629883 C-49.61075313 51.93776021 -49.67181381 49.66940816 -49.76464844 47.40258789 C-50.49135973 29.01599651 -50.49135973 29.01599651 -46.3706665 24.02755737 C-42.37165408 20.75358715 -37.95734038 18.75267165 -33.16409302 16.90660095 C-29.72013042 15.46382574 -26.7497984 13.47506303 -23.625 11.4375 C-20.69656241 9.59517913 -18.28048857 8.09349619 -15 7 C-14.67 6.34 -14.34 5.68 -14 5 C-11.85546875 3.7109375 -11.85546875 3.7109375 -9.1875 2.375 C-8.31480469 1.92898437 -7.44210937 1.48296875 -6.54296875 1.0234375 C-4 0 -4 0 0 0 Z " fill="#494C4D" transform="translate(335,127)"/>
<path d="M0 0 C9.35920395 4.36916155 18.14732129 9.70427993 27 15 C28.03640625 15.61875 29.0728125 16.2375 30.140625 16.875 C32.42971083 18.24571008 34.71554303 19.62159645 37 21 C39.58278586 22.55049406 42.0218801 24.00949976 44.7890625 25.2109375 C47 27 47 27 47.5234375 30.5390625 C47.49957754 31.90173126 47.44918207 33.26414275 47.375 34.625 C47.36082031 35.31851563 47.34664063 36.01203125 47.33203125 36.7265625 C47.18289424 41.81710576 47.18289424 41.81710576 46 43 C44.02287193 43.09900199 42.04209962 43.12970773 40.0625 43.125 C38.44021484 43.12886719 38.44021484 43.12886719 36.78515625 43.1328125 C34 43 34 43 32 42 C31.92523438 41.06671875 31.85046875 40.1334375 31.7734375 39.171875 C31.30312324 35.7521359 31.30312324 35.7521359 28.1640625 33.953125 C26.99617188 33.39109375 25.82828125 32.8290625 24.625 32.25 C23.46226562 31.67765625 22.29953125 31.1053125 21.1015625 30.515625 C20.07804687 30.01546875 19.05453125 29.5153125 18 29 C17.01 28.34 16.02 27.68 15 27 C14.67 34.92 14.34 42.84 14 51 C24.89 51 35.78 51 47 51 C47 63.87 47 76.74 47 90 C42.38 92.64 37.76 95.28 33 98 C26.38664295 101.90395192 26.38664295 101.90395192 19.9375 106.0625 C4.87096774 116 4.87096774 116 -1 116 C-2.03568446 111.72546666 -2.17688302 107.55444873 -2.203125 103.1796875 C-2.20882507 102.43921173 -2.21452515 101.69873596 -2.22039795 100.93582153 C-2.22980674 99.37763889 -2.23636546 97.81943672 -2.24023438 96.26123047 C-2.24999742 93.87562941 -2.28108084 91.49087008 -2.3125 89.10546875 C-2.31902543 87.58854676 -2.3242777 86.07161865 -2.328125 84.5546875 C-2.3404718 83.84214813 -2.3528186 83.12960876 -2.36553955 82.39547729 C-2.35241436 79.4900103 -2.32430951 77.48177149 -0.67553711 75.0324707 C3.27773041 72.59645608 9.73081456 74.53503921 14 75 C14 80.28 14 85.56 14 91 C16.15777081 89.51653257 18.31496433 88.03221612 20.46875 86.54296875 C22.83821638 85.0986181 24.87623207 84.38480408 27.5 83.5625 C28.655 82.716875 29.81 81.87125 31 81 C31.33 76.05 31.66 71.1 32 66 C21.11 66 10.22 66 -1 66 C-2.12559351 54.74406487 -2.12559351 54.74406487 -2.14526367 49.93945312 C-2.15164352 48.86554321 -2.15802338 47.7916333 -2.16459656 46.68518066 C-2.16570938 45.56188354 -2.1668222 44.43858643 -2.16796875 43.28125 C-2.17129715 42.1015564 -2.17462555 40.92186279 -2.17805481 39.7064209 C-2.18308767 37.23234443 -2.18546427 34.75826127 -2.18530273 32.28417969 C-2.18750951 28.48361337 -2.20575858 24.68332835 -2.22460938 20.8828125 C-2.22753993 18.47395932 -2.22952698 16.06510477 -2.23046875 13.65625 C-2.23765427 12.51675903 -2.24483978 11.37726807 -2.25224304 10.20324707 C-2.24916641 9.15455444 -2.24608978 8.10586182 -2.24291992 7.02539062 C-2.24434494 6.1006897 -2.24576996 5.17598877 -2.24723816 4.2232666 C-2 2 -2 2 0 0 Z " fill="#484B4C" transform="translate(343,126)"/>
<path d="M0 0 C1.32 0 2.64 0 4 0 C4 0.99 4 1.98 4 3 C4.66 3 5.32 3 6 3 C6.625 5.3125 6.625 5.3125 7 8 C6.01 9.485 6.01 9.485 5 11 C5.99 11 6.98 11 8 11 C8 11.66 8 12.32 8 13 C1.6 17.06153846 1.6 17.06153846 -1.4375 16.75 C-1.953125 16.5025 -2.46875 16.255 -3 16 C-3.33 16.99 -3.66 17.98 -4 19 C-4.66 19 -5.32 19 -6 19 C-6 23.29 -6 27.58 -6 32 C-6.66 31.67 -7.32 31.34 -8 31 C-7.67 30.34 -7.34 29.68 -7 29 C-7.66 28.67 -8.32 28.34 -9 28 C-10.68208635 27.02616054 -12.34738161 26.02304948 -14 25 C-14.7425 24.608125 -15.485 24.21625 -16.25 23.8125 C-18.93839208 21.02809392 -19.03811186 17.78069666 -19 14 C-17.83880082 10.51640247 -17.28561028 10.29196369 -14.21875 8.5546875 C-13.45949219 8.11769531 -12.70023437 7.68070313 -11.91796875 7.23046875 C-11.12003906 6.78316406 -10.32210938 6.33585938 -9.5 5.875 C-7.92646199 4.97765118 -6.35351339 4.07926774 -4.78125 3.1796875 C-4.08064453 2.78507324 -3.38003906 2.39045898 -2.65820312 1.98388672 C-1.02452613 1.1069574 -1.02452613 1.1069574 0 0 Z " fill="#494C4E" transform="translate(285,130)"/>
<path d="M0 0 C3.78022046 1.84615418 7.41768743 3.79549996 11 6 C12.30130859 6.55300781 12.30130859 6.55300781 13.62890625 7.1171875 C16 9 16 9 16.5234375 12.5390625 C16.49957754 13.90173126 16.44918207 15.26414275 16.375 16.625 C16.35373047 17.66527344 16.35373047 17.66527344 16.33203125 18.7265625 C16.18289424 23.81710576 16.18289424 23.81710576 15 25 C13.02287193 25.09900199 11.04209962 25.12970773 9.0625 25.125 C7.44021484 25.12886719 7.44021484 25.12886719 5.78515625 25.1328125 C3 25 3 25 1 24 C0.65977214 22.00116131 0.32670903 20.00109278 0 18 C-0.66 17.34 -1.32 16.68 -2 16 C-1.01 15.34 -0.02 14.68 1 14 C0.67 13.01 0.34 12.02 0 11 C0.33 10.67 0.66 10.34 1 10 C1.04063832 8.33382885 1.042721 6.66611905 1 5 C1.66 4.67 2.32 4.34 3 4 C2.01 3.34 1.02 2.68 0 2 C0 1.34 0 0.68 0 0 Z " fill="#545757" transform="translate(374,144)"/>
<path d="M0 0 C7.71661601 4.24618024 15.3590445 8.61976519 23 13 C20 15 20 15 18 16 C16.95191959 17.97522846 15.9479589 19.97481509 15 22 C16.65 22.33 18.3 22.66 20 23 C19.01 24.32 18.02 25.64 17 27 C16.02417969 26.36191406 15.04835938 25.72382813 14.04296875 25.06640625 C12.75792538 24.23159705 11.4727629 23.39697118 10.1875 22.5625 C9.54490234 22.14162109 8.90230469 21.72074219 8.24023438 21.28710938 C5.51609896 19.52277296 3.09247829 18.0308261 0 17 C0 16.01 0 15.02 0 14 C0.66 13.67 1.32 13.34 2 13 C1.67 11.35 1.34 9.7 1 8 C1.66 8 2.32 8 3 8 C3 7.34 3 6.68 3 6 C2.01 5.67 1.02 5.34 0 5 C0.66 4.01 1.32 3.02 2 2 C1.34 2 0.68 2 0 2 C0 1.34 0 0.68 0 0 Z " fill="#4E5153" transform="translate(372,119)"/>
<path d="M0 0 C0 3 0 3 -2 5.1875 C-2.66 5.785625 -3.32 6.38375 -4 7 C-3.34 7 -2.68 7 -2 7 C-1.67 8.32 -1.34 9.64 -1 11 C-0.34 10.67 0.32 10.34 1 10 C1.66 11.32 2.32 12.64 3 14 C0.36 15.98 -2.28 17.96 -5 20 C-5.33 19.34 -5.66 18.68 -6 18 C-6.99 18 -7.98 18 -9 18 C-8.67 15.36 -8.34 12.72 -8 10 C-8.66 10 -9.32 10 -10 10 C-10 9.01 -10 8.02 -10 7 C-10.66 6.67 -11.32 6.34 -12 6 C-10.37829621 4.99466333 -8.75252763 3.99588093 -7.125 3 C-5.76761719 2.1646875 -5.76761719 2.1646875 -4.3828125 1.3125 C-2 0 -2 0 0 0 Z " fill="#545858" transform="translate(299,123)"/>
<path d="M0 0 C3.37462715 0.54723683 5.08235 1.0549 8 3 C8 3.66 8 4.32 8 5 C6.02 5.99 6.02 5.99 4 7 C4 7.99 4 8.98 4 10 C3.34 10 2.68 10 2 10 C2.33 10.99 2.66 11.98 3 13 C1.35 13 -0.3 13 -2 13 C-1.814375 12.2575 -1.62875 11.515 -1.4375 10.75 C-1.00796892 8.05009037 -1.14877026 6.55368923 -2 4 C-1.34 4 -0.68 4 0 4 C0 2.68 0 1.36 0 0 Z " fill="#464A49" transform="translate(315,241)"/>
<path d="M0 0 C1.32 0.66 2.64 1.32 4 2 C3.67 3.32 3.34 4.64 3 6 C3.99 6.33 4.98 6.66 6 7 C5.34 8.98 4.68 10.96 4 13 C3.38125 12.649375 2.7625 12.29875 2.125 11.9375 C1.42375 11.628125 0.7225 11.31875 0 11 C-0.99 11.495 -0.99 11.495 -2 12 C-2 10.35 -2 8.7 -2 7 C-2.66 7 -3.32 7 -4 7 C-3.34 5.68 -2.68 4.36 -2 3 C-1.34 3 -0.68 3 0 3 C0 2.01 0 1.02 0 0 Z " fill="#3E4243" transform="translate(299,123)"/>
<path d="M0 0 C0.33 0 0.66 0 1 0 C1 2.97 1 5.94 1 9 C3.97 9 6.94 9 10 9 C11.09506492 12.28519475 11.09960608 14.73663415 11.0625 18.1875 C11.05347656 19.27417969 11.04445313 20.36085937 11.03515625 21.48046875 C11.02355469 22.31191406 11.01195312 23.14335937 11 24 C10.67 24 10.34 24 10 24 C10 20.37 10 16.74 10 13 C6.7 13 3.4 13 0 13 C0 8.71 0 4.42 0 0 Z " fill="#626568" transform="translate(310,179)"/>
<path d="M0 0 C1.32 0.66 2.64 1.32 4 2 C3.34 3.65 2.68 5.3 2 7 C5.63 7 9.26 7 13 7 C13 7.99 13 8.98 13 10 C10.85423363 10.02685938 8.70837355 10.04633088 6.5625 10.0625 C5.36753906 10.07410156 4.17257812 10.08570313 2.94140625 10.09765625 C0 10 0 10 -1 9 C-1.04063832 7.33382885 -1.042721 5.66611905 -1 4 C-0.34 4 0.32 4 1 4 C0.67 2.68 0.34 1.36 0 0 Z " fill="#676969" transform="translate(321,159)"/>
<path d="M0 0 C0.66 0 1.32 0 2 0 C2.33 1.65 2.66 3.3 3 5 C13.23 5 23.46 5 34 5 C34 5.33 34 5.66 34 6 C22.78 6 11.56 6 0 6 C0 4.02 0 2.04 0 0 Z " fill="#343535" transform="translate(342,185)"/>
<path d="M0 0 C0.33 2.64 0.66 5.28 1 8 C0.01 8 -0.98 8 -2 8 C-1.67 7.01 -1.34 6.02 -1 5 C-4.3 5 -7.6 5 -11 5 C-8.86408028 0.72816055 -4.40904993 0 0 0 Z " fill="#676768" transform="translate(335,127)"/>
<path d="M0 0 C1.42944945 2.35438733 2.08661261 3.48032433 1.625 6.25 C1.41875 6.8275 1.2125 7.405 1 8 C-1.31 8 -3.62 8 -6 8 C-4.6875 4.5625 -4.6875 4.5625 -3 1 C-2.01 0.67 -1.02 0.34 0 0 Z " fill="#414445" transform="translate(334,159)"/>
<path d="M0 0 C0.33 0 0.66 0 1 0 C1 4.62 1 9.24 1 14 C0.01 13.01 -0.98 12.02 -2 11 C-2.66 11 -3.32 11 -4 11 C-3.49172849 6.62886504 -2.54826592 3.61004338 0 0 Z " fill="#424545" transform="translate(388,154)"/>
<path d="M0 0 C4.75481646 0.57634139 7.97048212 2.55068521 12 5 C11.34 5.66 10.68 6.32 10 7 C10 7.99 10 8.98 10 10 C9.01 10.33 8.02 10.66 7 11 C7.33 9.35 7.66 7.7 8 6 C7.01 6.33 6.02 6.66 5 7 C5.33 5.68 5.66 4.36 6 3 C4.68 3.33 3.36 3.66 2 4 C1.34 2.68 0.68 1.36 0 0 Z " fill="#5C5E5F" transform="translate(360,113)"/>
<path d="M0 0 C0.66 1.32 1.32 2.64 2 4 C-1 6 -1 6 -5 6 C-7.00401011 6.30830925 -9.00511766 6.63729412 -11 7 C-11.33 6.01 -11.66 5.02 -12 4 C-10.68 4 -9.36 4 -8 4 C-5.83064081 3.15562 -5.83064081 3.15562 -3.75 2 C-2.69039063 1.443125 -2.69039063 1.443125 -1.609375 0.875 C-1.07828125 0.58625 -0.5471875 0.2975 0 0 Z " fill="#747576" transform="translate(347,248)"/>
<path d="M0 0 C1.65 0 3.3 0 5 0 C3.8125 3.4375 3.8125 3.4375 2 7 C-0.6875 7.9375 -0.6875 7.9375 -3 8 C-2.37240135 5.07120629 -1.41377341 2.63904371 0 0 Z " fill="#444849" transform="translate(330,104)"/>
<path d="M0 0 C-1.44186047 4.56589147 -1.44186047 4.56589147 -3.6875 6.3125 C-6.83356663 7.2478171 -9.73924509 7.12541365 -13 7 C-10.58175467 4.58175467 -8.0609509 3.49924126 -5 2 C-2 0 -2 0 0 0 Z " fill="#6F7070" transform="translate(369,236)"/>
<path d="M0 0 C1.79244141 0.01740234 1.79244141 0.01740234 3.62109375 0.03515625 C5.41740234 0.04869141 5.41740234 0.04869141 7.25 0.0625 C8.17683594 0.07410156 9.10367187 0.08570313 10.05859375 0.09765625 C10.05859375 0.42765625 10.05859375 0.75765625 10.05859375 1.09765625 C8.07859375 1.42765625 6.09859375 1.75765625 4.05859375 2.09765625 C4.05859375 2.75765625 4.05859375 3.41765625 4.05859375 4.09765625 C2.07859375 4.09765625 0.09859375 4.09765625 -1.94140625 4.09765625 C-1.94140625 3.43765625 -1.94140625 2.77765625 -1.94140625 2.09765625 C-2.60140625 1.76765625 -3.26140625 1.43765625 -3.94140625 1.09765625 C-2.94140625 0.09765625 -2.94140625 0.09765625 0 0 Z " fill="#555757" transform="translate(324.94140625,176.90234375)"/>
<path d="M0 0 C3.465 1.485 3.465 1.485 7 3 C6.01 4.485 6.01 4.485 5 6 C4.34 6 3.68 6 3 6 C3 5.34 3 4.68 3 4 C0.53199953 5.15173355 -1.04783565 6.04783565 -3 8 C-2.25 2.25 -2.25 2.25 0 0 Z " fill="#3A3D3D" transform="translate(345,129)"/>
<path d="M0 0 C0.99 0.33 1.98 0.66 3 1 C2.34 2.32 1.68 3.64 1 5 C0.34 5 -0.32 5 -1 5 C-0.67 5.66 -0.34 6.32 0 7 C0.039992 8.99960012 0.04346799 11.00047242 0 13 C-0.99 12.67 -1.98 12.34 -3 12 C-3.125 6.25 -3.125 6.25 -2 4 C-1.34 4 -0.68 4 0 4 C0 2.68 0 1.36 0 0 Z " fill="#777979" transform="translate(281,145)"/>
<path d="M0 0 C0.8971875 0.309375 0.8971875 0.309375 1.8125 0.625 C-0.70580747 3.74770126 -1.9136549 4.57023098 -5.9375 5.375 C-7.54625 5.49875 -7.54625 5.49875 -9.1875 5.625 C-3.21691176 -0.55147059 -3.21691176 -0.55147059 0 0 Z " fill="#686A69" transform="translate(368.1875,211.375)"/>
<path d="M0 0 C1.65 0 3.3 0 5 0 C4.01 0.495 4.01 0.495 3 1 C3.33 2.32 3.66 3.64 4 5 C3.34 5 2.68 5 2 5 C2 7.64 2 10.28 2 13 C1.67 13 1.34 13 1 13 C0.67 11.02 0.34 9.04 0 7 C-0.33 7 -0.66 7 -1 7 C-0.67 4.69 -0.34 2.38 0 0 Z " fill="#5D5E5E" transform="translate(342,201)"/>
<path d="M0 0 C3.36938898 1.12312966 4.53174093 2.53174093 7 5 C6.67 5.99 6.34 6.98 6 8 C3.03 6.35 0.06 4.7 -3 3 C-1.68 2.67 -0.36 2.34 1 2 C0.67 1.34 0.34 0.68 0 0 Z " fill="#747677" transform="translate(360,124)"/>
<path d="M0 0 C0.99 0 1.98 0 3 0 C3 0.66 3 1.32 3 2 C4.98 1.67 6.96 1.34 9 1 C7.02579865 3.52259061 6.03254358 3.9929808 2.8125 4.6875 C1.4203125 4.8421875 1.4203125 4.8421875 0 5 C0 3.35 0 1.7 0 0 Z " fill="#5E5F61" transform="translate(313,124)"/>
<path d="M0 0 C0.99 0.66 1.98 1.32 3 2 C2.67 2.99 2.34 3.98 2 5 C1.67 4.67 1.34 4.34 1 4 C-1.33297433 3.95907063 -3.66705225 3.95758277 -6 4 C-6.33 3.34 -6.66 2.68 -7 2 C-3.6875 0.875 -3.6875 0.875 0 0 Z " fill="#3E4143" transform="translate(329,256)"/>
<path d="M0 0 C2.95183101 2.95183101 3.08663988 5.95511947 4 10 C2.68 10.33 1.36 10.66 0 11 C-1.05404945 7.01803543 -0.84098656 4.01804691 0 0 Z " fill="#404141" transform="translate(342,231)"/>
<path d="M0 0 C0 0.99 0 1.98 0 3 C-0.99 3.66 -1.98 4.32 -3 5 C-3.99 6.485 -3.99 6.485 -5 8 C-5.99 6.68 -6.98 5.36 -8 4 C-2.25 0 -2.25 0 0 0 Z " fill="#5F6061" transform="translate(299,123)"/>
<path d="M0 0 C0.99 0 1.98 0 3 0 C2.34 1.32 1.68 2.64 1 4 C-1.97 3.505 -1.97 3.505 -5 3 C-5 2.34 -5 1.68 -5 1 C-5.66 0.67 -6.32 0.34 -7 0 C-3.78043217 -1.07318928 -3.09578311 -0.870689 0 0 Z " fill="#3D3E41" transform="translate(277,227)"/>
<path d="M0 0 C2 2 2 2 2.125 5.125 C2.08375 6.07375 2.0425 7.0225 2 8 C2.66 8 3.32 8 4 8 C4 8.99 4 9.98 4 11 C2.68 10.67 1.36 10.34 0 10 C0 6.7 0 3.4 0 0 Z " fill="#5F6161" transform="translate(278,211)"/>
<path d="M0 0 C0.66 0 1.32 0 2 0 C2 0.99 2 1.98 2 3 C2.66 3 3.32 3 4 3 C4 4.32 4 5.64 4 7 C3.01 7 2.02 7 1 7 C1 6.34 1 5.68 1 5 C0.01 4.67 -0.98 4.34 -2 4 C-2 3.34 -2 2.68 -2 2 C-1.34 2 -0.68 2 0 2 C0 1.34 0 0.68 0 0 Z " fill="#404545" transform="translate(287,130)"/>
<path d="M0 0 C1.98 0.99 3.96 1.98 6 3 C3.4345406 5.5654594 1.52313332 5.54046087 -2 6 C-2 4.68 -2 3.36 -2 2 C-1.34 2 -0.68 2 0 2 C0 1.34 0 0.68 0 0 Z " fill="#404445" transform="translate(318,120)"/>
<path d="M0 0 C0.33 0 0.66 0 1 0 C2.33257403 11.52164009 2.33257403 11.52164009 1 17 C0.67 17 0.34 17 0 17 C-0.19561869 14.9174133 -0.38119313 12.83388144 -0.5625 10.75 C-0.66691406 9.58984375 -0.77132813 8.4296875 -0.87890625 7.234375 C-0.98198087 4.48128523 -0.86213473 2.580018 0 0 Z " fill="#343837" transform="translate(355,152)"/>
<path d="M0 0 C0.66 0 1.32 0 2 0 C2.33 3.3 2.66 6.6 3 10 C2.34 10 1.68 10 1 10 C-0.60725635 6.78548731 -0.05748185 3.56387464 0 0 Z " fill="#444445" transform="translate(333,147)"/>
<path d="M0 0 C0.99 0.33 1.98 0.66 3 1 C2.67 1.66 2.34 2.32 2 3 C1.34 3 0.68 3 0 3 C0 2.01 0 1.02 0 0 Z M-2 2 C-1.34 2.66 -0.68 3.32 0 4 C-0.66 4.66 -1.32 5.32 -2 6 C-1.67 6.66 -1.34 7.32 -1 8 C-1.66 8 -2.32 8 -3 8 C-3.33 8.99 -3.66 9.98 -4 11 C-4 8.36 -4 5.72 -4 3 C-3.34 2.67 -2.68 2.34 -2 2 Z " fill="#3E3F40" transform="translate(292,151)"/>
<path d="M0 0 C0.66 0.99 1.32 1.98 2 3 C1.34 3 0.68 3 0 3 C0.33 3.99 0.66 4.98 1 6 C-0.65 6 -2.3 6 -4 6 C-4 4.68 -4 3.36 -4 2 C-2.68 1.34 -1.36 0.68 0 0 Z " fill="#3D4242" transform="translate(317,248)"/>
<path d="M0 0 C-5.14285714 4.42857143 -5.14285714 4.42857143 -9 5 C-8.6875 3.0625 -8.6875 3.0625 -8 1 C-5.07175348 0.02391783 -3.04386724 -0.08226668 0 0 Z " fill="#727473" transform="translate(312,131)"/>
<path d="M0 0 C1.98 0 3.96 0 6 0 C6.66 1.32 7.32 2.64 8 4 C7.0925 3.79375 6.185 3.5875 5.25 3.375 C1.88972103 2.9872755 0.75924185 3.19588033 -2 5 C-1.34 3.35 -0.68 1.7 0 0 Z " fill="#707373" transform="translate(335,114)"/>
<path d="M0 0 C0.99 0 1.98 0 3 0 C3 0.66 3 1.32 3 2 C3.66 2.33 4.32 2.66 5 3 C3.02 3.99 1.04 4.98 -1 6 C-1.66 5.34 -2.32 4.68 -3 4 C-2.01 3.67 -1.02 3.34 0 3 C0 2.01 0 1.02 0 0 Z " fill="#5B5E5D" transform="translate(391,233)"/>
<path d="M0 0 C0.66 0 1.32 0 2 0 C2.33 0.99 2.66 1.98 3 3 C2.67 3.66 2.34 4.32 2 5 C2.66 5.33 3.32 5.66 4 6 C2.68 6.33 1.36 6.66 0 7 C0 4.69 0 2.38 0 0 Z " fill="#3E4141" transform="translate(315,225)"/>
<path d="M0 0 C1.65 0.33 3.3 0.66 5 1 C3.71034824 2.37562854 2.37310707 3.70766393 1 5 C0.34 5 -0.32 5 -1 5 C-0.67 3.35 -0.34 1.7 0 0 Z " fill="#616364" transform="translate(364,226)"/>
<path d="M0 0 C0 0.66 0 1.32 0 2 C0.66 2.33 1.32 2.66 2 3 C-1.13349732 4.04449911 -1.98968256 3.93423645 -5 3 C-5.33 3.66 -5.66 4.32 -6 5 C-6.66 4.34 -7.32 3.68 -8 3 C-2.25 0 -2.25 0 0 0 Z " fill="#686969" transform="translate(390,224)"/>
<path d="M0 0 C1.485 0.99 1.485 0.99 3 2 C2.625 4.9375 2.625 4.9375 2 8 C1.01 8.495 1.01 8.495 0 9 C0 6.03 0 3.06 0 0 Z " fill="#3D3E3C" transform="translate(267,179)"/>
<path d="M0 0 C1.98 0.495 1.98 0.495 4 1 C3.67 1.66 3.34 2.32 3 3 C3.99 3.33 4.98 3.66 6 4 C4.1875 4.625 4.1875 4.625 2 5 C1.01 4.34 0.02 3.68 -1 3 C-0.67 2.01 -0.34 1.02 0 0 Z " fill="#585C5D" transform="translate(305,154)"/>
<path d="M0 0 C2.33944736 0.28730055 4.6739143 0.61936779 7 1 C6.01 2.32 5.02 3.64 4 5 C2.35 3.68 0.7 2.36 -1 1 C-0.67 0.67 -0.34 0.34 0 0 Z " fill="#6B6C6F" transform="translate(385,141)"/>
<path d="M0 0 C0.66 0.33 1.32 0.66 2 1 C0.35 2.98 -1.3 4.96 -3 7 C-3.33 6.34 -3.66 5.68 -4 5 C-4.66 4.67 -5.32 4.34 -6 4 C-5.01 4 -4.02 4 -3 4 C-3 3.34 -3 2.68 -3 2 C-2.01 2 -1.02 2 0 2 C0 1.34 0 0.68 0 0 Z " fill="#7A7B7B" transform="translate(378,229)"/>
<path d="M0 0 C0 2.31 0 4.62 0 7 C-0.66 7 -1.32 7 -2 7 C-3.625 4.5 -3.625 4.5 -5 2 C-1.125 0 -1.125 0 0 0 Z " fill="#7C7F7B" transform="translate(357,203)"/>
<path d="M0 0 C0.66 0 1.32 0 2 0 C2 1.65 2 3.3 2 5 C0.68 4.34 -0.64 3.68 -2 3 C-1.67 4.32 -1.34 5.64 -1 7 C-1.66 7 -2.32 7 -3 7 C-3 5.35 -3 3.7 -3 2 C-2.01 2 -1.02 2 0 2 C0 1.34 0 0.68 0 0 Z " fill="#3B3E3F" transform="translate(323,156)"/>
<path d="M0 0 C1.98 0.99 3.96 1.98 6 3 C3 5 3 5 0 5 C0 3.35 0 1.7 0 0 Z " fill="#6E7170" transform="translate(389,129)"/>
<path d="M0 0 C1.65 0 3.3 0 5 0 C4.67 0.99 4.34 1.98 4 3 C2.35 3.33 0.7 3.66 -1 4 C-0.67 2.68 -0.34 1.36 0 0 Z " fill="#3F403F" transform="translate(330,104)"/>
</svg>
